<?xml version="1.0" encoding="UTF-8"?>
<svg xmlns="http://www.w3.org/2000/svg" xmlns:xlink="http://www.w3.org/1999/xlink" version="1.1" viewBox="0 0 4050.7 7200">
  <defs>
    <style>
      .cls-1 {
        fill: #236d71;
      }

      .cls-2 {
        fill: #004145;
      }

      .cls-3 {
        fill: url(#_무제_그라디언트_19-3);
      }

      .cls-4 {
        fill: url(#_무제_그라디언트_19-2);
      }

      .cls-5 {
        stroke-linecap: round;
      }

      .cls-5, .cls-6 {
        fill: none;
        stroke: #04515d;
        stroke-miterlimit: 10;
        stroke-width: 46px;
      }

      .cls-7 {
        fill: url(#_무제_그라디언트_19);
      }

      .cls-8 {
        fill: #c6d8d4;
      }

      .cls-9 {
        fill: #231815;
        font-family: 'Ownglyph_meetme-Rg', 'Ownglyph meetme';
        font-size: 165px;
      }
    </style>
    <linearGradient id="_무제_그라디언트_19" data-name="무제 그라디언트 19" x1="823.2" y1="4020.6" x2="1353.6" y2="3101.9" gradientUnits="userSpaceOnUse">
      <stop offset="0" stop-color="#236d71"/>
      <stop offset="0" stop-color="#256e72"/>
      <stop offset="0" stop-color="#2d7378"/>
      <stop offset=".1" stop-color="#3c7d82"/>
      <stop offset=".2" stop-color="#508a8f"/>
      <stop offset=".2" stop-color="#6a9ba1"/>
      <stop offset=".2" stop-color="#8aafb7"/>
      <stop offset=".2" stop-color="#b0c8d1"/>
      <stop offset=".2" stop-color="#dbe4ee"/>
      <stop offset=".3" stop-color="#e8ecf7"/>
    </linearGradient>
    <linearGradient id="_무제_그라디언트_19-2" data-name="무제 그라디언트 19" x1="748.7" y1="4255.4" x2="869.6" y2="4046" xlink:href="#_무제_그라디언트_19"/>
    <linearGradient id="_무제_그라디언트_19-3" data-name="무제 그라디언트 19" x1="1303.4" y1="3980" x2="1303.4" y2="3980" xlink:href="#_무제_그라디언트_19"/>
  </defs>
  <!-- Generator: Adobe Illustrator 28.7.1, SVG Export Plug-In . SVG Version: 1.2.0 Build 142)  -->
  <g>
    <g id="_레이어_1" data-name="레이어_1">
      <rect class="cls-8" width="4050.7" height="7200"/>
      <g>
        <path class="cls-1" d="M962.8,3812.9s23.2-23.2,59.3-43.8c36.1-20.6,108.9-59.8,150.2-87.6,68.4-46.1,92.8-95.9,92.8-95.9,0,0-4.2,16.9-55.8,14.7-51.6-2.1-52.7-22.1-52.7-22.1,0,0,19-11.6,37.9-17.9,19-6.3,77.6-10.5,128.2-49.5,92.9-71.5,90.2-102.9,90.2-102.9,0,0,1,10.7-59.1,19.7-58.6,8.8-63-19.7-63-19.7,0,0,39.1,4.9,130.7-57.3,122.8-83.5,136.3-301.5,136.3-301.5,0,0-194.2-12.9-297.5,75.8s-86.9,165.5-86.9,165.5c0,0-14,1-17.9-26.8-6.3-44.6,18.7-95.4,18.7-95.4,0,0-83.5,60.8-106,117-27.9,69.8-22.3,170.6-22.3,170.6,0,0-9,5.3-25.1-42.1-16.1-47.4-9.3-87.1-9.3-87.1,0,0-48.7,83.9-54.1,121.8-10.6,73.6,11.8,147.2,11.8,147.2,0,0-9.5,3.6-36.4-25.4s-24.5-57.5-24.5-57.5c0,0-18.6,96.4-15.2,143.8s28.8,139.6,28.8,139.6c0,0,8.9,12.3,17,16.8s24.1,0,24.1,0Z"/>
        <path class="cls-7" d="M835.5,4027.8s31.4-1.2,43-17.4c11.6-16.3,50-138.4,60.6-182s93.8-285.2,208.6-421.3c114.9-136,265.4-270.7,265.4-270.7,0,0-116.2,58.1-225.8,177-109.6,118.8-212.6,294.5-240.3,375-27.7,80.6-53.2,190.4-58.5,205s-22.1,97.9-31.9,110.1c-9.8,12.2-21.1,24.4-21.1,24.4Z"/>
        <path class="cls-4" d="M566,4149.8s351.4,1.7,486.4,1.7"/>
        <path class="cls-3" d="M1303.4,3980"/>
        <path class="cls-2" d="M1303.4,3582.1"/>
        <path class="cls-6" d="M908.7,3405.5s20.8,0-99.5,0-129.7,81.9-129.7,134.6-2.9,383.3-2.9,440.5c0,94.5-93.1,169.3-93.1,169.3h445.6c140.4,0,283.4-150.4,283.4-252.6v-315.2"/>
        <path class="cls-6" d="M1312.5,3897.2c0,128.7-184.8,103.9-184.8,103.9,0,0,3.9,148.7-98.6,148.7"/>
        <line class="cls-5" x1="764" y1="3646.3" x2="847.1" y2="3646.3"/>
        <line class="cls-5" x1="764" y1="3771.4" x2="873.3" y2="3771.4"/>
        <line class="cls-5" x1="1090.1" y1="3771.4" x2="1229.9" y2="3771.4"/>
        <line class="cls-5" x1="980.1" y1="3898" x2="1229.9" y2="3898"/>
        <line class="cls-5" x1="764" y1="3898" x2="852.5" y2="3898"/>
        <line class="cls-5" x1="764" y1="4027.8" x2="873.3" y2="4027.8"/>
      </g>
      <g>
        <path class="cls-1" d="M2104.3,4095.7c-1.1,6.3-3.6,12.5-7.5,18.6-4,6.1-8.8,11.3-14.6,15.8-5.8,4.5-12.1,7.9-19,10.3-6.9,2.4-13.4,3-19.8,2-8.4-1.1-16.1-4.2-22.9-9.5-6.9-5.3-12.9-11.1-18.2-17.4-7.9-9-15-18.2-21.4-27.7-6.3-9.5-12.4-19.5-18.2-30.1-17.4,8.4-35.9,13.8-55.4,16.2-19.5,2.4-38.8,1.4-57.7-2.8-25.3-5.8-48.9-16.3-70.8-31.6-21.9-15.3-39.7-34-53.4-56.2-13.7-22.2-23.5-46.4-29.3-72.8-5.8-26.4-9.2-52.7-10.3-79.1,0-1.1-.3-3-.8-5.9-.5-2.9-.8-4.6-.8-5.1,0-3.2.1-8.8.4-17,.3-8.2.8-16.9,1.6-26.1.8-9.2,1.4-17.8,2-25.7.5-7.9,1.1-13.4,1.6-16.6,4.2-29,10.7-57.6,19.4-85.8,8.7-28.2,21.2-54.4,37.6-78.7,7.9-11.1,16.6-21.6,26.1-31.6,9.5-10,19.8-19,30.9-26.9,7.4-5.3,15.5-9.8,24.5-13.4,9-3.7,17.9-6.1,26.9-7.1,20.6-2.1,41.4-1.4,62.5,2,21.1,3.4,40.9,10.2,59.3,20.2,30.1,15.8,54.3,38.2,72.8,67.2,11.1,16.9,19.6,35.5,25.7,55.8,6.1,20.3,10.4,40.5,13.1,60.5,3.7,27.4,4.9,55.1,3.6,83.1-1.3,28-4.4,55.6-9.1,83.1-4.2,23.7-10,46.9-17.4,69.6-7.4,22.7-17.9,43.8-31.6,63.3,8.4,11.1,17,21.6,25.7,31.6,8.7,10,17.5,20.3,26.5,30.9,4.7,5.3,9.2,10.9,13.4,17,4.2,6.1,5.8,12.8,4.7,20.2ZM1819.5,3899.5c8.4,17.4,21.6,30.5,39.6,39.2,17.9,8.7,35.9,10.7,53.8,5.9-3.2-6.8-6.3-13.7-9.5-20.6-3.2-6.8-4.2-14-3.2-21.4,1.1-9.5,6.1-17.3,15-23.3,9-6.1,17.9-7.8,26.9-5.1,4.7,1.1,9,3.3,12.7,6.7,3.7,3.4,6.8,7.3,9.5,11.5,5.8-13.2,10.1-26.8,13.1-40.7,2.9-14,5.4-28.1,7.5-42.3,2.6-23.7,3.2-47.5,1.6-71.2-1.6-23.7-6.6-46.7-15-68.8-2.6-8.4-6.2-16.7-10.7-24.9-4.5-8.2-9.6-15.7-15.4-22.5-10-12.1-22.8-19.6-38.4-22.5-15.6-2.9-30.2-.7-43.9,6.7-1.1.5-3.3,2.4-6.7,5.5-3.4,3.2-5.7,5.3-6.7,6.3-10,10-17.7,20.8-22.9,32.4-9,19.5-15.6,39.8-19.8,60.9-4.2,21.1-6.3,42.5-6.3,64.1s.9,42.3,2.8,63.7c1.8,21.4,7.2,41.5,16.2,60.5Z"/>
        <path class="cls-1" d="M2330.6,4053.8c-13.2,8.4-28,14.5-44.3,18.2-16.4,3.7-32.2,3.2-47.5-1.6-18.5-6.3-34.4-17.4-47.9-33.2-13.4-15.8-23.6-33-30.5-51.4-6.3-18.5-10.2-37.6-11.5-57.4-1.3-19.8-1.5-39.7-.4-59.7,0-1.6.1-4.5.4-8.7.3-4.2.7-9,1.2-14.2.5-5.3.9-10,1.2-14.2.3-4.2.4-7.1.4-8.7.5-8.4,1.3-20.3,2.4-35.6,1.1-15.3,2.8-31,5.1-47.1,2.4-16.1,5.7-31,9.9-44.7,4.2-13.7,9.5-23.7,15.8-30.1,6.3-6.3,14.1-10.8,23.3-13.4,9.2-2.6,18.5-3.6,27.7-2.8,9.2.8,18.1,3.4,26.5,7.9,8.4,4.5,15,10.7,19.8,18.6,4.7,7.9,7.2,16.7,7.5,26.5.3,9.8-.7,19.1-2.8,28.1-4.2,22.7-9.2,45.1-15,67.2-5.8,22.2-10,44.8-12.7,68-1.1,8.4-1.6,18.1-1.6,28.9s.9,21.4,2.8,31.6c1.8,10.3,4.9,19.5,9.1,27.7,4.2,8.2,10,14.1,17.4,17.8,6.8,3.2,14.2,3.2,22.2,0,7.9-3.2,14-8.2,18.2-15,6.3-9.5,11.3-19.6,15-30.5,3.7-10.8,6.8-22,9.5-33.6,6.8-26.9,11.2-53.9,13.1-81.1,1.8-27.2,5.7-54.2,11.5-81.1,2.6-10.5,5.9-21.1,9.9-31.6,4-10.5,9.6-19.5,17-26.9,7.4-7.4,16.2-11.3,26.5-11.9,10.3-.5,19.6,2.4,28.1,8.7,7.4,6.3,12.9,15,16.6,26.1,2.6,9,4.2,18.3,4.7,28.1.5,9.8.5,19.4,0,28.9-.5,16.9-1.1,33.5-1.6,49.8-.5,16.4,0,33,1.6,49.8,2.1,30.6,9,61.4,20.6,92.6,4.2,11.6,8.8,23.1,13.8,34.4,5,11.3,8.6,23.1,10.7,35.2,1.1,4.7,1.1,9.8,0,15-1.1,5.3-3.2,10-6.3,14.2-4.2,5.8-9.8,10.7-16.6,14.6-6.9,4-14.4,6.9-22.5,8.7-8.2,1.9-16.5,2.8-24.9,2.8s-15.8-1.3-22.2-4c-5.8-1.6-10.7-4.5-14.6-8.7-4-4.2-7.3-8.7-9.9-13.4-5.8-12.1-9.1-24.8-9.9-38-.8-13.2-1.5-26.1-2-38.8-7.9,16.4-16.9,32.6-26.9,48.7-10,16.1-22.7,29.1-38,39.2Z"/>
        <path class="cls-1" d="M2669.9,4067.2c-9,3.2-18.5,4.5-28.5,4-10-.5-19.5-2.6-28.5-6.3-5.3-2.1-10-5.1-14.2-9.1-4.2-4-7.7-8.3-10.3-13.1-4.7-7.4-8.4-15.3-11.1-23.7-2.6-8.4-4.7-16.9-6.3-25.3,0-2.1-.4-5.4-1.2-9.9-.8-4.5-.7-7.5.4-9.1,0-1.1-.3-2.1-.8-3.2-.5-1.1-1.1-2.1-1.6-3.2-1.6-21.1-2.2-42.2-2-63.3.3-21.1.9-42.2,2-63.3,1.1-12.7,2.1-25,3.2-37.2,1.1-12.1,3.7-24.3,7.9-36.4,2.6-7.4,5.9-14.2,9.9-20.6,4-6.3,8.8-11.6,14.6-15.8,3.2-2.6,6.2-5.3,9.1-7.9,2.9-2.6,6.2-4.7,9.9-6.3,4.7-2.1,10-3.7,15.8-4.7,5.8-1.1,11.7-1.3,17.8-.8,6.1.5,11.9,1.7,17.4,3.6,5.5,1.9,9.9,4.6,13.1,8.3,7.4,7.4,11.6,16.6,12.7,27.7.5,5.8.9,16.6,1.2,32.4.3,15.8.1,32.7-.4,50.6-.5,17.9-.9,34.9-1.2,51-.3,16.1-.4,26.8-.4,32,.5,20,.8,39.9.8,59.7s-2.1,39.2-6.3,58.1c-1.6,6.3-4.2,12.5-7.9,18.6-3.7,6.1-8.7,10.4-15,13.1ZM2649.4,3674.9c-12.1,2.1-22.2.3-30.1-5.5-7.9-5.8-13.7-13.7-17.4-23.7-3.7-10-5.3-21.2-4.7-33.6.5-12.4,3.7-24.1,9.5-35.2,2.6-5.8,6.1-11.3,10.3-16.6,4.2-5.3,9-9.6,14.2-13.1,5.3-3.4,10.7-5.8,16.2-7.1,5.5-1.3,11.2-.7,17,2,9.5,4.2,17.9,10.7,25.3,19.4,7.4,8.7,11.9,18.3,13.4,28.9,2.1,12.7.4,25.6-5.1,38.8-5.5,13.2-13.1,24-22.5,32.4-4.2,3.2-8.4,5.9-12.7,8.3-4.2,2.4-8.7,4.1-13.4,5.1Z"/>
        <path class="cls-1" d="M2825,4076.7c-5.8,1.1-11.9,1.4-18.2,1.2-6.3-.3-11.6-2.5-15.8-6.7s-4.9-7-6.7-13.1c-1.9-6.1-3.3-12.5-4.4-19.4-1.1-6.8-2-13.6-2.8-20.2-.8-6.6-1.2-11.7-1.2-15.4-1.6-34.8-2.4-69.6-2.4-104.4v-.8c-2.1-42.7-2.6-85.2-1.6-127.4,1.1-42.2,3.2-84.4,6.3-126.6.5-7.9,1.2-18.1,2-30.5.8-12.4,2.2-24.9,4.4-37.6,2.1-12.7,4.9-24.4,8.3-35.2,3.4-10.8,8.3-18.6,14.6-23.3,6.8-5.3,14.9-8.2,24.1-8.7,9.2-.5,18.1-.3,26.5.8,7.4,1.1,14.5,3.6,21.4,7.5,6.8,4,11.6,9.4,14.2,16.2,2.1,5.8,2.9,14.6,2.4,26.5-.5,11.9-1.7,24.5-3.6,38-1.9,13.4-3.8,26.4-5.9,38.8-2.1,12.4-3.4,21.5-4,27.3-2.6,24.3-4.5,48.5-5.5,72.8-1.1,24.3-1.9,48.8-2.4,73.6-.5,22.2-.7,44-.4,65.7.3,21.6,1.4,43.5,3.6,65.7,1.1,11.6,2.1,23.1,3.2,34.4,1.1,11.3,1.8,22.8,2.4,34.4,1.1,7.4,1.1,15.3,0,23.7-1.1,8.4-4.2,15.8-9.5,22.2-5.8,6.9-13.2,11.7-22.2,14.6-9,2.9-17.9,4.9-26.9,5.9Z"/>
        <path class="cls-1" d="M3016.4,4076.7c-5.8,1.1-11.9,1.4-18.2,1.2-6.3-.3-11.6-2.5-15.8-6.7s-4.9-7-6.7-13.1c-1.9-6.1-3.3-12.5-4.4-19.4-1.1-6.8-2-13.6-2.8-20.2-.8-6.6-1.2-11.7-1.2-15.4-1.6-34.8-2.4-69.6-2.4-104.4v-.8c-2.1-42.7-2.6-85.2-1.6-127.4,1.1-42.2,3.2-84.4,6.3-126.6.5-7.9,1.2-18.1,2-30.5.8-12.4,2.2-24.9,4.4-37.6,2.1-12.7,4.9-24.4,8.3-35.2,3.4-10.8,8.3-18.6,14.6-23.3,6.8-5.3,14.9-8.2,24.1-8.7,9.2-.5,18.1-.3,26.5.8,7.4,1.1,14.5,3.6,21.4,7.5,6.8,4,11.6,9.4,14.2,16.2,2.1,5.8,2.9,14.6,2.4,26.5-.5,11.9-1.7,24.5-3.6,38-1.9,13.4-3.8,26.4-5.9,38.8-2.1,12.4-3.4,21.5-4,27.3-2.6,24.3-4.5,48.5-5.5,72.8-1.1,24.3-1.9,48.8-2.4,73.6-.5,22.2-.7,44-.4,65.7.3,21.6,1.4,43.5,3.6,65.7,1.1,11.6,2.1,23.1,3.2,34.4,1.1,11.3,1.8,22.8,2.4,34.4,1.1,7.4,1.1,15.3,0,23.7-1.1,8.4-4.2,15.8-9.5,22.2-5.8,6.9-13.2,11.7-22.2,14.6-9,2.9-17.9,4.9-26.9,5.9Z"/>
        <path class="cls-1" d="M3438.8,4075.2c-7.4.5-15,.9-22.9,1.2-7.9.3-14.8-2-20.6-6.7-3.2-2.1-5.9-6.3-8.3-12.7-2.4-6.3-4.4-13.1-5.9-20.2-1.6-7.1-2.8-14.1-3.6-21-.8-6.8-1.5-12.4-2-16.6-6.3,9-13.1,17.7-20.2,26.1-7.1,8.4-15.2,15.6-24.1,21.4-6.9,4.7-14,9-21.4,12.7-7.4,3.7-15,6.1-22.9,7.1-10.6,1.1-21.4.3-32.4-2.4-11.1-2.6-21.4-6.6-30.9-11.9-13.7-7.4-25.6-17.7-35.6-30.9-10-13.2-18.7-26.9-26.1-41.1-5.8-11.6-11-23.5-15.4-35.6-4.5-12.1-7.5-24.5-9.1-37.2-2.6-25.3-1.9-50.6,2.4-75.9,4.2-25.3,12.1-49,23.7-71.2,9-16.9,20.3-32.7,34-47.5,13.7-14.8,28.7-27.4,45.1-38,9-5.8,18.6-11.1,28.9-15.8,10.3-4.7,20.7-7.6,31.2-8.7,14.8-1.6,29.4.1,43.9,5.1,14.5,5,27.8,11.5,39.9,19.4.5.5,1.8-.3,4-2.4,2.1-2.1,3.7-3.7,4.7-4.7,6.3-4.2,13.8-6.6,22.5-7.1,8.7-.5,16.7.3,24.1,2.4,5.8,1.6,11.5,4.4,17,8.3,5.5,4,9.6,8.8,12.3,14.6,3.7,6.9,5.9,14.2,6.7,22.2.8,7.9,1.2,15.8,1.2,23.7-.5,18.5-2,36.8-4.4,55-2.4,18.2-4.1,36.5-5.1,55-1.1,23.2-1.5,46.2-1.2,68.8.3,22.7,2.2,45.6,5.9,68.8.5,4.2,1.7,10.2,3.6,17.8,1.8,7.7,3.4,15.4,4.7,23.3,1.3,7.9,2,15.6,2,22.9s-1.3,12.9-4,16.6c-3.2,4.2-9.6,7.7-19.4,10.3-9.8,2.6-17.3,4.2-22.5,4.7ZM3288.5,3967.6c6.8,2.6,13.4,2.6,19.8,0,6.3-2.6,12-6.5,17-11.5s9.6-11.1,13.8-18.2c4.2-7.1,7.9-13.8,11.1-20.2,7.4-15.3,12.3-31.4,14.6-48.3,2.4-16.9,4.1-33.7,5.1-50.6,1.1-9,1.6-18.1,1.6-27.3s-.5-18.3-1.6-27.3c-1.1-5.3-2.2-10.3-3.6-15-1.3-4.7-3.6-9.2-6.7-13.4-5.8-6.8-13.2-10.5-22.2-11.1-9-.5-17.1,1.6-24.5,6.3-8.4,5.3-15.6,12-21.4,20.2-5.8,8.2-10.8,16.7-15,25.7-6.9,13.7-12,28-15.4,42.7-3.4,14.8-5.7,29.8-6.7,45.1-.5,8.4-.7,18.1-.4,28.9.3,10.8,1.6,21.2,4,31.2,2.4,10,6.1,19,11.1,26.9,5,7.9,11.5,13.2,19.4,15.8Z"/>
      </g>
      <text class="cls-9" transform="translate(1707.9 3337)"><tspan x="0" y="0">쓰기만 하세요. 정리는 우리가 할게요 </tspan></text>
    </g>
  </g>
</svg>