<?xml version="1.0" encoding="UTF-8"?>
<svg id="_레이어_1" data-name="레이어 1" xmlns="http://www.w3.org/2000/svg" xmlns:xlink="http://www.w3.org/1999/xlink" viewBox="0 0 4050.71 7200">
  <defs>
    <style>
      .cls-1 {
        fill: #236d71;
      }

      .cls-2 {
        fill: url(#_무제_그라디언트_19-2);
      }

      .cls-3 {
        stroke-linecap: round;
      }

      .cls-3, .cls-4 {
        fill: none;
        stroke: #04515d;
        stroke-miterlimit: 10;
        stroke-width: 46px;
      }

      .cls-5 {
        fill: url(#_무제_그라디언트_19);
      }

      .cls-6 {
        fill: #c6d8d4;
      }

      .cls-7 {
        fill: #231815;
        font-family: 'Ownglyph_meetme-Rg', 'Ownglyph meetme';
        font-size: 180px;
      }
    </style>
    <linearGradient id="_무제_그라디언트_19" data-name="무제 그라디언트 19" x1="823.16" y1="4020.63" x2="1353.57" y2="3101.93" gradientUnits="userSpaceOnUse">
      <stop offset="0" stop-color="#236d71"/>
      <stop offset=".06" stop-color="#256e72"/>
      <stop offset=".1" stop-color="#2d7378"/>
      <stop offset=".13" stop-color="#3c7d82"/>
      <stop offset=".16" stop-color="#508a8f"/>
      <stop offset=".18" stop-color="#6a9ba1"/>
      <stop offset=".2" stop-color="#8aafb7"/>
      <stop offset=".23" stop-color="#b0c8d1"/>
      <stop offset=".25" stop-color="#dbe4ee"/>
      <stop offset=".25" stop-color="#e8ecf7"/>
    </linearGradient>
    <linearGradient id="_무제_그라디언트_19-2" data-name="무제 그라디언트 19" x1="748.75" y1="4255.35" x2="869.61" y2="4046" xlink:href="#_무제_그라디언트_19"/>
  </defs>
  <rect class="cls-6" width="4050.71" height="7200"/>
  <g>
    <path class="cls-1" d="M962.78,3812.92s23.19-23.19,59.26-43.8c36.07-20.61,108.95-59.79,150.17-87.58,68.37-46.08,92.79-95.87,92.79-95.87,0,0-4.21,16.85-55.83,14.75-51.62-2.11-52.67-22.12-52.67-22.12,0,0,18.96-11.59,37.92-17.91s77.55-10.51,128.2-49.51c92.89-71.52,90.19-102.88,90.19-102.88,0,0,.97,10.71-59.09,19.7-58.57,8.76-63.03-19.7-63.03-19.7,0,0,39.1,4.94,130.65-57.32,122.82-83.52,136.35-301.55,136.35-301.55,0,0-194.23-12.86-297.46,75.84-73.75,63.37-86.93,165.48-86.93,165.48,0,0-14,.99-17.9-26.76-6.27-44.59,18.74-95.39,18.74-95.39,0,0-83.51,60.78-105.99,116.97-27.9,69.75-22.34,170.65-22.34,170.65,0,0-9.04,5.26-25.11-42.1-16.07-47.37-9.3-87.12-9.3-87.12,0,0-48.67,83.9-54.14,121.81-10.61,73.59,11.84,147.18,11.84,147.18,0,0-9.5,3.64-36.37-25.38-17.03-18.39-24.53-57.52-24.53-57.52,0,0-18.61,96.43-15.23,143.8,3.38,47.37,28.76,139.57,28.76,139.57,0,0,8.86,12.35,16.96,16.77,8.1,4.43,24.07,0,24.07,0Z"/>
    <path class="cls-5" d="M835.53,4027.78s31.4-1.16,43.03-17.44c11.63-16.28,49.99-138.43,60.55-182.01,10.56-43.58,93.76-285.24,208.65-421.26,114.89-136.02,265.43-270.71,265.43-270.71,0,0-116.21,58.1-225.81,176.95-109.61,118.85-212.61,294.48-240.34,375.04-27.73,80.55-53.25,190.44-58.53,204.97-5.28,14.53-22.09,97.9-31.88,110.08-9.79,12.18-21.1,24.38-21.1,24.38Z"/>
    <path class="cls-2" d="M565.98,4149.83s351.37,1.69,486.4,1.69"/>
    <path class="cls-4" d="M908.72,3405.51s20.76,0-99.54,0c-62.6,0-129.75,81.93-129.75,134.58,0,48.9-2.88,383.33-2.88,440.45,0,94.5-93.06,169.29-93.06,169.29h445.58c140.36,0,283.41-150.44,283.41-252.61v-315.16"/>
    <path class="cls-4" d="M1312.48,3897.23c0,128.65-184.82,103.87-184.82,103.87,0,0,3.94,148.73-98.59,148.73"/>
    <line class="cls-3" x1="764.05" y1="3646.26" x2="847.1" y2="3646.26"/>
    <line class="cls-3" x1="764.05" y1="3771.43" x2="873.31" y2="3771.43"/>
    <line class="cls-3" x1="1090.07" y1="3771.43" x2="1229.89" y2="3771.43"/>
    <line class="cls-3" x1="980.15" y1="3898.04" x2="1229.89" y2="3898.04"/>
    <line class="cls-3" x1="764.05" y1="3898.04" x2="852.51" y2="3898.04"/>
    <line class="cls-3" x1="764.05" y1="4027.78" x2="873.31" y2="4027.78"/>
  </g>
  <g>
    <path class="cls-1" d="M2104.3,4095.73c-1.06,6.33-3.56,12.52-7.52,18.59-3.96,6.06-8.84,11.33-14.64,15.82-5.81,4.47-12.14,7.91-18.99,10.28-6.86,2.37-13.45,3.03-19.78,1.98-8.44-1.06-16.09-4.23-22.94-9.49-6.86-5.28-12.93-11.08-18.2-17.4-7.91-8.97-15.03-18.19-21.36-27.69-6.33-9.49-12.4-19.52-18.2-30.06-17.4,8.44-35.87,13.84-55.38,16.22-19.52,2.37-38.76,1.45-57.75-2.77-25.32-5.8-48.92-16.34-70.8-31.64-21.89-15.29-39.69-34.02-53.4-56.17-13.72-22.15-23.47-46.4-29.27-72.78-5.81-26.37-9.23-52.73-10.28-79.11,0-1.05-.27-3.03-.79-5.93-.53-2.89-.79-4.61-.79-5.14,0-3.17.12-8.83.4-17.01.26-8.17.79-16.87,1.58-26.11.79-9.22,1.45-17.8,1.98-25.71.52-7.91,1.05-13.45,1.58-16.61,4.22-29,10.68-57.61,19.38-85.83,8.7-28.21,21.22-54.45,37.58-78.71,7.91-11.08,16.61-21.62,26.11-31.64,9.49-10.01,19.78-18.99,30.85-26.9,7.38-5.27,15.55-9.75,24.52-13.45,8.96-3.68,17.92-6.06,26.9-7.12,20.57-2.1,41.4-1.45,62.5,1.98,21.09,3.44,40.86,10.16,59.33,20.17,30.06,15.82,54.31,38.24,72.78,67.24,11.08,16.88,19.64,35.48,25.71,55.77,6.06,20.31,10.41,40.48,13.05,60.52,3.68,27.43,4.87,55.12,3.56,83.06-1.32,27.96-4.35,55.65-9.1,83.06-4.23,23.73-10.02,46.95-17.4,69.62-7.39,22.68-17.94,43.78-31.64,63.29,8.43,11.08,17.01,21.63,25.71,31.64,8.7,10.02,17.53,20.31,26.5,30.85,4.75,5.28,9.22,10.94,13.45,17.01,4.21,6.06,5.8,12.78,4.75,20.17ZM1819.51,3899.54c8.43,17.4,21.62,30.46,39.55,39.16,17.92,8.7,35.86,10.68,53.79,5.93-3.16-6.85-6.33-13.71-9.49-20.57-3.16-6.85-4.23-13.97-3.16-21.36,1.05-9.49,6.06-17.27,15.03-23.34,8.96-6.06,17.92-7.78,26.9-5.14,4.75,1.06,8.96,3.3,12.66,6.72,3.68,3.44,6.85,7.26,9.49,11.47,5.8-13.18,10.15-26.76,13.05-40.74,2.89-13.97,5.4-28.08,7.52-42.32,2.63-23.73,3.16-47.47,1.58-71.2-1.58-23.73-6.6-46.67-15.03-68.82-2.65-8.43-6.2-16.74-10.68-24.92-4.49-8.17-9.63-15.69-15.43-22.55-10.02-12.13-22.82-19.64-38.37-22.55-15.56-2.89-30.2-.66-43.91,6.72-1.06.53-3.3,2.37-6.72,5.54-3.44,3.17-5.67,5.28-6.72,6.33-10.02,10.02-17.68,20.84-22.94,32.43-8.97,19.52-15.56,39.83-19.78,60.91-4.23,21.1-6.33,42.46-6.33,64.08s.91,42.32,2.77,63.68c1.84,21.36,7.24,41.53,16.22,60.52Z"/>
    <path class="cls-1" d="M2330.55,4053.8c-13.19,8.44-27.96,14.5-44.3,18.19-16.35,3.68-32.18,3.16-47.47-1.58-18.47-6.33-34.41-17.4-47.86-33.23-13.45-15.82-23.61-32.95-30.46-51.42-6.33-18.46-10.16-37.58-11.47-57.35-1.32-19.78-1.46-39.68-.4-59.73,0-1.58.12-4.47.4-8.7.26-4.22.66-8.96,1.19-14.24.52-5.27.91-10.01,1.19-14.24.26-4.21.4-7.12.4-8.7.52-8.43,1.31-20.3,2.37-35.6,1.05-15.29,2.77-30.98,5.14-47.07,2.37-16.08,5.66-30.98,9.89-44.7,4.21-13.71,9.49-23.73,15.82-30.06,6.33-6.33,14.1-10.8,23.34-13.45,9.22-2.63,18.46-3.56,27.69-2.77,9.22.79,18.06,3.44,26.5,7.91,8.43,4.49,15.03,10.68,19.78,18.59,4.75,7.91,7.24,16.75,7.52,26.5.26,9.77-.67,19.12-2.77,28.08-4.23,22.68-9.23,45.09-15.03,67.24-5.81,22.15-10.03,44.83-12.66,68.03-1.06,8.44-1.58,18.07-1.58,28.87s.91,21.36,2.77,31.64c1.84,10.28,4.87,19.52,9.1,27.69,4.21,8.18,10.01,14.12,17.4,17.8,6.85,3.17,14.24,3.17,22.15,0,7.91-3.16,13.97-8.17,18.2-15.03,6.33-9.49,11.33-19.64,15.03-30.46,3.68-10.8,6.85-22.01,9.49-33.62,6.85-26.9,11.2-53.92,13.05-81.09,1.84-27.16,5.66-54.19,11.47-81.09,2.63-10.54,5.93-21.09,9.89-31.64,3.96-10.54,9.62-19.5,17.01-26.9,7.38-7.38,16.22-11.33,26.5-11.87,10.28-.52,19.64,2.37,28.08,8.7,7.38,6.33,12.92,15.03,16.61,26.11,2.63,8.97,4.22,18.33,4.75,28.08.52,9.77.52,19.38,0,28.87-.53,16.88-1.06,33.5-1.58,49.84-.53,16.35,0,32.97,1.58,49.84,2.1,30.59,8.96,61.45,20.57,92.56,4.21,11.61,8.83,23.08,13.84,34.41,5.01,11.35,8.57,23.08,10.68,35.2,1.05,4.75,1.05,9.77,0,15.03-1.06,5.28-3.16,10.02-6.33,14.24-4.23,5.81-9.77,10.68-16.61,14.64-6.86,3.96-14.38,6.86-22.55,8.7-8.18,1.85-16.49,2.77-24.92,2.77s-15.82-1.31-22.15-3.96c-5.81-1.58-10.68-4.48-14.64-8.7-3.96-4.21-7.26-8.7-9.89-13.45-5.81-12.13-9.1-24.78-9.89-37.97-.79-13.18-1.46-26.11-1.98-38.76-7.91,16.35-16.88,32.57-26.9,48.65-10.02,16.09-22.68,29.15-37.97,39.16Z"/>
    <path class="cls-1" d="M2669.93,4067.25c-8.97,3.16-18.47,4.48-28.48,3.96-10.02-.53-19.52-2.65-28.48-6.33-5.28-2.1-10.02-5.14-14.24-9.1-4.23-3.96-7.65-8.31-10.28-13.05-4.75-7.38-8.44-15.29-11.08-23.73-2.65-8.43-4.75-16.87-6.33-25.31,0-2.1-.4-5.4-1.19-9.89-.79-4.48-.67-7.52.4-9.1,0-1.05-.27-2.1-.79-3.17-.53-1.05-1.06-2.1-1.58-3.16-1.58-21.09-2.25-42.19-1.98-63.29.26-21.09.91-42.19,1.98-63.29,1.05-12.66,2.1-25.04,3.17-37.18,1.05-12.13,3.68-24.25,7.91-36.39,2.63-7.38,5.93-14.24,9.89-20.57,3.96-6.33,8.82-11.59,14.63-15.82,3.17-2.63,6.19-5.27,9.1-7.91,2.89-2.63,6.19-4.75,9.89-6.33,4.75-2.1,10.01-3.68,15.82-4.75,5.8-1.05,11.73-1.31,17.8-.79,6.06.53,11.87,1.72,17.4,3.56,5.54,1.85,9.89,4.62,13.05,8.31,7.38,7.39,11.59,16.61,12.66,27.69.52,5.81.91,16.61,1.19,32.43.26,15.82.12,32.71-.4,50.63-.53,17.94-.93,34.94-1.19,51.03-.27,16.09-.4,26.77-.4,32.04.52,20.05.79,39.95.79,59.73s-2.11,39.16-6.33,58.15c-1.58,6.33-4.23,12.53-7.91,18.59-3.7,6.07-8.7,10.42-15.03,13.05ZM2649.36,3674.86c-12.14,2.11-22.15.27-30.06-5.54-7.91-5.8-13.72-13.71-17.4-23.73-3.7-10.01-5.28-21.22-4.75-33.62.52-12.39,3.68-24.13,9.49-35.2,2.63-5.8,6.06-11.33,10.28-16.61,4.21-5.27,8.96-9.62,14.24-13.05,5.27-3.42,10.68-5.8,16.22-7.12,5.54-1.31,11.2-.66,17.01,1.98,9.49,4.23,17.92,10.68,25.32,19.38,7.38,8.7,11.87,18.33,13.45,28.87,2.1,12.66.4,25.59-5.14,38.76-5.54,13.19-13.05,24-22.55,32.43-4.23,3.16-8.44,5.93-12.66,8.31-4.23,2.37-8.7,4.09-13.45,5.14Z"/>
    <path class="cls-1" d="M2824.97,4076.74c-5.81,1.05-11.87,1.45-18.19,1.19-6.33-.27-11.61-2.51-15.82-6.72-2.65-2.65-4.88-6.98-6.72-13.05-1.85-6.06-3.3-12.52-4.35-19.38-1.06-6.85-1.98-13.57-2.77-20.17-.79-6.59-1.19-11.73-1.19-15.43-1.58-34.81-2.37-69.62-2.37-104.42v-.79c-2.11-42.72-2.65-85.17-1.58-127.37,1.05-42.19,3.17-84.37,6.33-126.57.52-7.91,1.19-18.06,1.98-30.46.79-12.39,2.24-24.92,4.35-37.58,2.1-12.66,4.87-24.39,8.31-35.2,3.42-10.8,8.31-18.59,14.63-23.34,6.85-5.27,14.89-8.17,24.13-8.7,9.22-.52,18.06-.26,26.5.79,7.38,1.06,14.5,3.56,21.36,7.52,6.85,3.96,11.59,9.37,14.24,16.22,2.1,5.81,2.89,14.64,2.37,26.5-.53,11.87-1.72,24.52-3.56,37.97-1.85,13.45-3.83,26.38-5.93,38.76-2.11,12.4-3.44,21.49-3.96,27.29-2.64,24.26-4.49,48.53-5.54,72.78-1.06,24.26-1.85,48.79-2.37,73.57-.53,22.15-.67,44.04-.4,65.66.26,21.63,1.45,43.51,3.56,65.66,1.05,11.61,2.1,23.08,3.16,34.41,1.05,11.35,1.84,22.82,2.37,34.41,1.05,7.39,1.05,15.3,0,23.73-1.06,8.44-4.23,15.82-9.49,22.15-5.81,6.86-13.19,11.74-22.15,14.64-8.97,2.89-17.94,4.87-26.9,5.93Z"/>
    <path class="cls-1" d="M3016.41,4076.74c-5.81,1.05-11.87,1.45-18.2,1.19-6.33-.27-11.61-2.51-15.82-6.72-2.65-2.65-4.88-6.98-6.72-13.05-1.85-6.06-3.3-12.52-4.35-19.38-1.06-6.85-1.98-13.57-2.77-20.17-.79-6.59-1.19-11.73-1.19-15.43-1.58-34.81-2.37-69.62-2.37-104.42v-.79c-2.11-42.72-2.65-85.17-1.58-127.37,1.05-42.19,3.16-84.37,6.33-126.57.52-7.91,1.19-18.06,1.98-30.46.79-12.39,2.24-24.92,4.35-37.58,2.1-12.66,4.87-24.39,8.31-35.2,3.42-10.8,8.31-18.59,14.64-23.34,6.85-5.27,14.89-8.17,24.13-8.7,9.22-.52,18.06-.26,26.5.79,7.38,1.06,14.5,3.56,21.36,7.52,6.85,3.96,11.59,9.37,14.24,16.22,2.1,5.81,2.89,14.64,2.37,26.5-.53,11.87-1.72,24.52-3.56,37.97-1.85,13.45-3.83,26.38-5.93,38.76-2.11,12.4-3.44,21.49-3.96,27.29-2.65,24.26-4.49,48.53-5.54,72.78-1.06,24.26-1.85,48.79-2.37,73.57-.53,22.15-.67,44.04-.4,65.66.26,21.63,1.45,43.51,3.56,65.66,1.05,11.61,2.1,23.08,3.16,34.41,1.05,11.35,1.84,22.82,2.37,34.41,1.05,7.39,1.05,15.3,0,23.73-1.06,8.44-4.23,15.82-9.49,22.15-5.81,6.86-13.19,11.74-22.15,14.64-8.97,2.89-17.94,4.87-26.9,5.93Z"/>
    <path class="cls-1" d="M3438.84,4075.16c-7.39.52-15.03.91-22.94,1.19-7.91.26-14.77-1.98-20.57-6.72-3.16-2.1-5.93-6.33-8.31-12.66-2.37-6.33-4.35-13.05-5.93-20.17-1.58-7.12-2.77-14.1-3.56-20.96-.79-6.85-1.46-12.39-1.98-16.61-6.33,8.97-13.05,17.68-20.17,26.11-7.12,8.44-15.17,15.56-24.13,21.36-6.86,4.75-13.98,8.97-21.36,12.66-7.39,3.7-15.03,6.07-22.94,7.12-10.56,1.06-21.36.27-32.43-2.37-11.08-2.63-21.36-6.59-30.85-11.87-13.72-7.38-25.59-17.66-35.6-30.85-10.03-13.18-18.73-26.9-26.11-41.14-5.81-11.59-10.95-23.46-15.43-35.6-4.49-12.13-7.52-24.52-9.1-37.18-2.64-25.32-1.85-50.63,2.37-75.94,4.21-25.32,12.13-49.05,23.73-71.2,8.96-16.87,20.3-32.69,34.02-47.47,13.71-14.76,28.74-27.42,45.09-37.97,8.96-5.8,18.59-11.08,28.87-15.82,10.28-4.75,20.69-7.64,31.25-8.7,14.76-1.58,29.39.14,43.91,5.14,14.5,5.02,27.81,11.47,39.95,19.38.52.53,1.84-.26,3.96-2.37,2.1-2.1,3.68-3.68,4.75-4.75,6.33-4.21,13.84-6.59,22.55-7.12,8.7-.52,16.74.27,24.13,2.37,5.8,1.58,11.47,4.35,17.01,8.31,5.54,3.96,9.62,8.84,12.26,14.64,3.68,6.86,5.93,14.24,6.72,22.15.79,7.91,1.19,15.82,1.19,23.73-.53,18.47-1.98,36.79-4.35,54.98-2.37,18.19-4.09,36.53-5.14,54.98-1.06,23.21-1.46,46.16-1.19,68.83.26,22.68,2.24,45.62,5.93,68.82.52,4.23,1.71,10.16,3.56,17.8,1.84,7.65,3.42,15.43,4.75,23.34,1.31,7.91,1.98,15.56,1.98,22.94s-1.32,12.93-3.96,16.61c-3.16,4.23-9.63,7.65-19.38,10.28-9.77,2.63-17.28,4.22-22.55,4.75ZM3288.54,3967.57c6.85,2.65,13.45,2.65,19.78,0,6.33-2.63,11.99-6.45,17.01-11.47,5.01-5.01,9.62-11.08,13.84-18.2,4.21-7.12,7.91-13.84,11.08-20.17,7.38-15.29,12.26-31.37,14.64-48.26,2.37-16.87,4.08-33.74,5.14-50.63,1.05-8.96,1.58-18.06,1.58-27.29s-.53-18.32-1.58-27.29c-1.06-5.27-2.25-10.28-3.56-15.03-1.32-4.75-3.56-9.22-6.72-13.45-5.81-6.85-13.19-10.54-22.15-11.08-8.97-.52-17.15,1.58-24.52,6.33-8.44,5.28-15.56,12-21.36,20.17-5.81,8.18-10.82,16.75-15.03,25.71-6.86,13.72-12,27.96-15.43,42.72-3.44,14.77-5.67,29.8-6.72,45.09-.53,8.44-.67,18.07-.4,28.88.26,10.82,1.58,21.24,3.96,31.25,2.37,10.02,6.06,18.99,11.08,26.9,5.01,7.91,11.47,13.19,19.38,15.82Z"/>
  </g>
  <text class="cls-7" transform="translate(513.33 4413.71)"><tspan x="0" y="0">Just write, we’ll take care of the organization.</tspan></text>
</svg>