<?xml version="1.0" encoding="UTF-8"?>
<svg id="_레이어_2" data-name="레이어 2" xmlns="http://www.w3.org/2000/svg" viewBox="0 0 623.62 623.62">
  <defs>
    <style>
      .cls-1 {
        fill: #231815;
      }

      .cls-1, .cls-2, .cls-3 {
        stroke-width: 0px;
      }

      .cls-2 {
        fill: #24a5de;
      }

      .cls-4 {
        font-family: Manifold, Manifold;
        font-size: 60px;
      }

      .cls-4, .cls-3 {
        fill: #fff;
      }
    </style>
  </defs>
  <g id="_레이어_3" data-name="레이어 3">
    <rect class="cls-1" width="623.62" height="623.62" rx="82.31" ry="82.31"/>
  </g>
  <g id="_레이어_1-2" data-name="레이어 1">
    <path class="cls-3" d="M316.29,67.54c-101.76,0-184.25,82.49-184.25,184.25s82.49,184.25,184.25,184.25,184.25-82.49,184.25-184.25-82.49-184.25-184.25-184.25ZM316.29,411.48c-88.19,0-159.69-71.49-159.69-159.69s71.49-159.69,159.69-159.69,159.69,71.49,159.69,159.69-71.49,159.69-159.69,159.69Z"/>
    <path class="cls-2" d="M351.73,230.54h-56.69c-15.66,0-28.35-12.69-28.35-28.35s12.69-28.35,28.35-28.35h56.69c15.66,0,28.35,12.69,28.35,28.35,0,7.83,6.35,14.17,14.17,14.17s14.17-6.35,14.17-14.17c0-31.31-25.38-56.69-56.69-56.69h-56.69c-31.31,0-56.69,25.38-56.69,56.69,0,8.5,1.87,16.56,5.22,23.8,3.33,7.18,8.11,13.55,13.97,18.72-11.77,10.39-19.19,25.59-19.19,42.52,0,31.31,25.38,56.69,56.69,56.69h56.69c31.31,0,56.69-25.38,56.69-56.69s-25.38-56.69-56.69-56.69ZM351.73,315.58h-56.69c-15.66,0-28.35-12.69-28.35-28.35s12.69-28.35,28.35-28.35h56.69c15.66,0,28.35,12.69,28.35,28.35s-12.69,28.35-28.35,28.35Z"/>
    <path class="cls-3" d="M280.86,273.06c-31.31,0-56.69-25.38-56.69-56.69s25.38-56.69,56.69-56.69c0,0,56.69,0,56.69,0,31.31,0,56.69,25.38,56.69,56.69,0,7.83-6.35,14.17-14.17,14.17s-14.17-6.35-14.17-14.17c0-15.66-12.69-28.35-28.35-28.35h-56.69c-15.66,0-28.35,12.69-28.35,28.35s12.69,28.35,28.35,28.35h56.69c7.83,0,14.17,6.35,14.17,14.17s-6.35,14.17-14.17,14.17c0,0-56.69,0-56.69,0Z"/>
    <path class="cls-3" d="M233.98,269.51c-6.19,9.09-9.82,20.07-9.82,31.89,0,31.31,25.38,56.69,56.69,56.69,0,0,56.69,0,56.69,0,31.31,0,56.69-25.38,56.69-56.69,0-7.83-6.35-14.17-14.17-14.17s-14.17,6.35-14.17,14.17c0,15.66-12.69,28.35-28.35,28.35h-56.69c-15.66,0-28.35-12.69-28.35-28.35,0-6.7,2.32-12.85,6.2-17.7-9.23-3.03-17.62-7.91-24.74-14.19Z"/>
    <text class="cls-4" transform="translate(61.21 548.67)"><tspan x="0" y="0">Epsilon-Delta</tspan></text>
  </g>
</svg>