<?xml version="1.0" encoding="UTF-8"?>
<svg id="_레이어_2" data-name="레이어 2" xmlns="http://www.w3.org/2000/svg" xmlns:xlink="http://www.w3.org/1999/xlink" viewBox="0 0 1039.53 1124.36">
  <defs>
    <style>
      .cls-1 {
        fill: #236d71;
      }

      .cls-2 {
        fill: url(#_무제_그라디언트_19-2);
      }

      .cls-3 {
        stroke-linecap: round;
      }

      .cls-3, .cls-4 {
        fill: none;
        stroke: #04515d;
        stroke-miterlimit: 10;
        stroke-width: 46px;
      }

      .cls-5 {
        fill: url(#_무제_그라디언트_19);
      }
    </style>
    <linearGradient id="_무제_그라디언트_19" data-name="무제 그라디언트 19" x1="304.98" y1="972.15" x2="835.4" y2="53.45" gradientUnits="userSpaceOnUse">
      <stop offset="0" stop-color="#236d71"/>
      <stop offset=".06" stop-color="#256e72"/>
      <stop offset=".1" stop-color="#2d7378"/>
      <stop offset=".13" stop-color="#3c7d82"/>
      <stop offset=".16" stop-color="#508a8f"/>
      <stop offset=".18" stop-color="#6a9ba1"/>
      <stop offset=".2" stop-color="#8aafb7"/>
      <stop offset=".23" stop-color="#b0c8d1"/>
      <stop offset=".25" stop-color="#dbe4ee"/>
      <stop offset=".25" stop-color="#e8ecf7"/>
    </linearGradient>
    <linearGradient id="_무제_그라디언트_19-2" data-name="무제 그라디언트 19" x1="230.58" y1="1206.87" x2="351.44" y2="997.53" xlink:href="#_무제_그라디언트_19"/>
  </defs>
  <g id="_레이어_1-2" data-name="레이어 1">
    <g>
      <path class="cls-1" d="M444.61,764.45s23.19-23.19,59.26-43.8c36.07-20.61,108.95-59.79,150.17-87.58,68.37-46.08,92.79-95.87,92.79-95.87,0,0-4.21,16.85-55.83,14.75-51.62-2.11-52.67-22.12-52.67-22.12,0,0,18.96-11.59,37.92-17.91s77.55-10.51,128.2-49.51c92.89-71.52,90.19-102.88,90.19-102.88,0,0,.97,10.71-59.09,19.7-58.57,8.76-63.03-19.7-63.03-19.7,0,0,39.1,4.94,130.65-57.32C1026,218.67,1039.53.65,1039.53.65c0,0-194.23-12.86-297.46,75.84-73.75,63.37-86.93,165.48-86.93,165.48,0,0-14,.99-17.9-26.76-6.27-44.59,18.74-95.39,18.74-95.39,0,0-83.51,60.78-105.99,116.97-27.9,69.75-22.34,170.65-22.34,170.65,0,0-9.04,5.26-25.11-42.1-16.07-47.37-9.3-87.12-9.3-87.12,0,0-48.67,83.9-54.14,121.81-10.61,73.59,11.84,147.18,11.84,147.18,0,0-9.5,3.64-36.37-25.38-17.03-18.39-24.53-57.52-24.53-57.52,0,0-18.61,96.43-15.23,143.8,3.38,47.37,28.76,139.57,28.76,139.57,0,0,8.86,12.35,16.96,16.77,8.1,4.43,24.07,0,24.07,0Z"/>
      <path class="cls-5" d="M317.36,979.3s31.4-1.16,43.03-17.44c11.63-16.28,49.99-138.43,60.55-182.01,10.56-43.58,93.76-285.24,208.65-421.26,114.89-136.02,265.43-270.71,265.43-270.71,0,0-116.21,58.1-225.81,176.95-109.61,118.85-212.61,294.48-240.34,375.04-27.73,80.55-53.25,190.44-58.53,204.97-5.28,14.53-22.09,97.9-31.88,110.08-9.79,12.18-21.1,24.38-21.1,24.38Z"/>
      <path class="cls-2" d="M47.81,1101.36s351.37,1.69,486.4,1.69"/>
      <path class="cls-4" d="M390.55,357.03s20.76,0-99.54,0c-62.6,0-129.75,81.93-129.75,134.58,0,48.9-2.88,383.33-2.88,440.45,0,94.5-93.06,169.29-93.06,169.29h445.58c140.36,0,283.41-150.44,283.41-252.61v-315.16"/>
      <path class="cls-4" d="M794.31,848.75c0,128.65-184.82,103.87-184.82,103.87,0,0,3.94,148.73-98.59,148.73"/>
      <line class="cls-3" x1="245.87" y1="597.78" x2="328.93" y2="597.78"/>
      <line class="cls-3" x1="245.87" y1="722.95" x2="355.14" y2="722.95"/>
      <line class="cls-3" x1="571.9" y1="722.95" x2="711.72" y2="722.95"/>
      <line class="cls-3" x1="461.98" y1="849.57" x2="711.72" y2="849.57"/>
      <line class="cls-3" x1="245.87" y1="849.57" x2="334.33" y2="849.57"/>
      <line class="cls-3" x1="245.87" y1="979.3" x2="355.14" y2="979.3"/>
    </g>
  </g>
</svg>